#N canvas 716 171 450 569 12;
#X obj 82 298 clone instruments 5;
#X obj 82 388 dac~;
#X obj 48 269 print;
#X msg 48 245 next keys \$1;
#X obj 50 153 random 5;
#X obj 56 92 bng 15 250 50 0 empty empty empty 17 7 0 10 -262144 -1
-1;
#X obj 235 77 scale;
#X obj 97 24 tgl 15 0 empty empty empty 17 7 0 10 -262144 -1 -1 0 1
;
#X obj 97 44 metro 700;
#X obj 120 154 random 5;
#X obj 189 154 random 5;
#X obj 146 213 pipe;
#X obj 119 185 bng 15 250 50 0 empty empty empty 17 7 0 10 -262144
-1 -1;
#X obj 218 190 bng 15 250 50 0 empty empty empty 17 7 0 10 -262144
-1 -1;
#X obj 142 185 random 50;
#X obj 243 187 random 50;
#X obj 245 223 pipe;
#X connect 0 0 1 0;
#X connect 0 0 1 1;
#X connect 3 0 2 0;
#X connect 3 0 0 0;
#X connect 4 0 3 0;
#X connect 5 0 4 0;
#X connect 7 0 8 0;
#X connect 8 0 4 0;
#X connect 8 0 9 0;
#X connect 8 0 10 0;
#X connect 9 0 12 0;
#X connect 9 0 11 0;
#X connect 10 0 13 0;
#X connect 10 0 16 0;
#X connect 11 0 3 0;
#X connect 12 0 14 0;
#X connect 13 0 15 0;
#X connect 14 0 11 1;
#X connect 15 0 16 1;
#X connect 16 0 3 0;
