#N canvas 510 145 450 568 12;
#X obj 88 416 clone keys 4;
#X obj 132 44 inlet;
#X obj 88 480 outlet~;
#X obj 66 154 route keys clarinet drums;
#X floatatom 66 178 5 0 0 0 - - -;
#X obj 132 68 print;
#X msg 66 365 next \$1;
#X floatatom 165 366 5 0 0 0 - - -;
#X obj 66 201 tabread japanese;
#X obj 127 229 bng 15 250 50 0 empty empty empty 17 7 0 10 -262144
-1 -1;
#X obj 120 318 *;
#X obj 147 248 random 2;
#X obj 147 272 + 2;
#X obj 93 449 *~ 0.8;
#X connect 0 0 13 0;
#X connect 1 0 5 0;
#X connect 1 0 3 0;
#X connect 3 0 4 0;
#X connect 4 0 8 0;
#X connect 6 0 0 0;
#X connect 8 0 9 0;
#X connect 8 0 10 0;
#X connect 9 0 11 0;
#X connect 10 0 6 0;
#X connect 10 0 7 0;
#X connect 11 0 12 0;
#X connect 12 0 10 1;
#X connect 13 0 2 0;
