#N canvas 395 469 450 300 12;
#X obj 173 46 inlet;
#X obj 172 240 outlet~;
#X obj 172 116 osc~;
#X obj 260 127 vline~;
#X obj 172 169 *~;
#X floatatom 121 74 5 0 0 0 - - -;
#X obj 283 74 delay 200;
#X msg 283 98 0 600;
#X msg 215 81 0.1 200;
#X obj 172 193 *~ 0.1;
#X connect 0 0 2 0;
#X connect 0 0 8 0;
#X connect 0 0 5 0;
#X connect 0 0 6 0;
#X connect 2 0 4 0;
#X connect 3 0 4 1;
#X connect 4 0 9 0;
#X connect 6 0 7 0;
#X connect 7 0 3 0;
#X connect 8 0 3 0;
#X connect 9 0 1 0;
